<?xml version="1.0" encoding="UTF-8"?> <svg xmlns="http://www.w3.org/2000/svg" xmlns:xlink="http://www.w3.org/1999/xlink" version="1.1" id="Layer_1" x="0px" y="0px" viewBox="0 0 625.5 311.8" style="enable-background:new 0 0 625.5 311.8;" xml:space="preserve"> <style type="text/css"> .st0{fill:url(#SVGID_1_);} .st1{fill:url(#SVGID_00000008848393143780380120000012818417108368334984_);} .st2{fill:url(#SVGID_00000080900799452601141310000013882852128220409783_);} .st3{fill:url(#SVGID_00000084491111596953416980000012364938505262086279_);} .st4{fill:url(#SVGID_00000064313553608266466590000008402434500086868130_);} .st5{fill:url(#SVGID_00000167357083121228859860000011893720145132169401_);} .st6{fill:url(#SVGID_00000125590976365405946740000001887333202305048454_);} .st7{fill:url(#SVGID_00000127760976512451612640000014408790231102608830_);} .st8{fill:url(#SVGID_00000041275825076520942740000017177656960146701758_);} .st9{fill:#0B3555;} </style> <g> <g> <g> <linearGradient id="SVGID_1_" gradientUnits="userSpaceOnUse" x1="234.1954" y1="128.797" x2="360.6144" y2="128.797"> <stop offset="0" style="stop-color:#B27F2C"></stop> <stop offset="0.1507" style="stop-color:#B27F2C"></stop> <stop offset="0.4537" style="stop-color:#DDBB5D"></stop> <stop offset="0.6129" style="stop-color:#F7DD7B"></stop> <stop offset="0.7204" style="stop-color:#FDF1A4"></stop> <stop offset="0.8387" style="stop-color:#F7DD7B"></stop> <stop offset="1" style="stop-color:#B27F2C"></stop> </linearGradient> <polygon class="st0" points="244.8,204.3 234.2,204.3 350,53.3 360.6,53.3 "></polygon> <linearGradient id="SVGID_00000051380137930855099180000006009104385279715467_" gradientUnits="userSpaceOnUse" x1="214.8996" y1="128.797" x2="341.3186" y2="128.797"> <stop offset="0" style="stop-color:#B27F2C"></stop> <stop offset="0.1507" style="stop-color:#B27F2C"></stop> <stop offset="0.4537" style="stop-color:#DDBB5D"></stop> <stop offset="0.6129" style="stop-color:#F7DD7B"></stop> <stop offset="0.7204" style="stop-color:#FDF1A4"></stop> <stop offset="0.8387" style="stop-color:#F7DD7B"></stop> <stop offset="1" style="stop-color:#B27F2C"></stop> </linearGradient> <polygon style="fill:url(#SVGID_00000051380137930855099180000006009104385279715467_);" points="225.5,204.3 214.9,204.3 330.7,53.3 341.3,53.3 "></polygon> <linearGradient id="SVGID_00000000193061923237750740000003129663561092469927_" gradientUnits="userSpaceOnUse" x1="253.4911" y1="128.797" x2="379.9101" y2="128.797"> <stop offset="0" style="stop-color:#B27F2C"></stop> <stop offset="0.1507" style="stop-color:#B27F2C"></stop> <stop offset="0.4537" style="stop-color:#DDBB5D"></stop> <stop offset="0.6129" style="stop-color:#F7DD7B"></stop> <stop offset="0.7204" style="stop-color:#FDF1A4"></stop> <stop offset="0.8387" style="stop-color:#F7DD7B"></stop> <stop offset="1" style="stop-color:#B27F2C"></stop> </linearGradient> <polygon style="fill:url(#SVGID_00000000193061923237750740000003129663561092469927_);" points="264.1,204.3 253.5,204.3 369.3,53.3 379.9,53.3 "></polygon> </g> <g> <linearGradient id="SVGID_00000097459976705353473240000011046882275203707547_" gradientUnits="userSpaceOnUse" x1="352.589" y1="206.2662" x2="202.2596" y2="31.796" gradientTransform="matrix(1 -3.000000e-03 3.000000e-03 1 8.8643 -7.0072)"> <stop offset="0" style="stop-color:#B27F2C"></stop> <stop offset="0.1507" style="stop-color:#B27F2C"></stop> <stop offset="0.4537" style="stop-color:#DDBB5D"></stop> <stop offset="0.6129" style="stop-color:#F7DD7B"></stop> <stop offset="0.7204" style="stop-color:#FDF1A4"></stop> <stop offset="0.8387" style="stop-color:#F7DD7B"></stop> <stop offset="1" style="stop-color:#B27F2C"></stop> </linearGradient> <polygon style="fill:url(#SVGID_00000097459976705353473240000011046882275203707547_);" points="277.1,109.4 282.4,102.5 244.5,53.4 234,53.5 "></polygon> <linearGradient id="SVGID_00000107563244043439114500000015311898751442403994_" gradientUnits="userSpaceOnUse" x1="380.4616" y1="212.7366" x2="235.084" y2="47.5658" gradientTransform="matrix(1 -3.000000e-03 3.000000e-03 1 8.8643 -7.0072)"> <stop offset="0" style="stop-color:#B27F2C"></stop> <stop offset="0.1507" style="stop-color:#B27F2C"></stop> <stop offset="0.4537" style="stop-color:#DDBB5D"></stop> <stop offset="0.6129" style="stop-color:#F7DD7B"></stop> <stop offset="0.7204" style="stop-color:#FDF1A4"></stop> <stop offset="0.8387" style="stop-color:#F7DD7B"></stop> <stop offset="1" style="stop-color:#B27F2C"></stop> </linearGradient> <polygon style="fill:url(#SVGID_00000107563244043439114500000015311898751442403994_);" points="286.7,96.8 292,89.9 263.8,53.4 253.3,53.4 "></polygon> <linearGradient id="SVGID_00000002371293923846219450000005642313084126741671_" gradientUnits="userSpaceOnUse" x1="357.9136" y1="232.5821" x2="212.5359" y2="67.4111" gradientTransform="matrix(1 -3.000000e-03 3.000000e-03 1 8.8643 -7.0072)"> <stop offset="0" style="stop-color:#B27F2C"></stop> <stop offset="0.1507" style="stop-color:#B27F2C"></stop> <stop offset="0.4537" style="stop-color:#DDBB5D"></stop> <stop offset="0.6129" style="stop-color:#F7DD7B"></stop> <stop offset="0.7204" style="stop-color:#FDF1A4"></stop> <stop offset="0.8387" style="stop-color:#F7DD7B"></stop> <stop offset="1" style="stop-color:#B27F2C"></stop> </linearGradient> <polygon style="fill:url(#SVGID_00000002371293923846219450000005642313084126741671_);" points="267.5,122 272.8,115.1 225.2,53.5 214.7,53.5 "></polygon> <linearGradient id="SVGID_00000000210097138734255840000015503033220561097657_" gradientUnits="userSpaceOnUse" x1="347.4275" y1="210.7135" x2="197.0981" y2="36.2433" gradientTransform="matrix(1 -3.000000e-03 3.000000e-03 1 8.8643 -7.0072)"> <stop offset="0" style="stop-color:#B27F2C"></stop> <stop offset="0.1507" style="stop-color:#B27F2C"></stop> <stop offset="0.4537" style="stop-color:#DDBB5D"></stop> <stop offset="0.6129" style="stop-color:#F7DD7B"></stop> <stop offset="0.7204" style="stop-color:#FDF1A4"></stop> <stop offset="0.8387" style="stop-color:#F7DD7B"></stop> <stop offset="1" style="stop-color:#B27F2C"></stop> </linearGradient> <polygon style="fill:url(#SVGID_00000000210097138734255840000015503033220561097657_);" points="350.3,204.2 360.8,204.1 317.7,148.2 312.4,155.1 "></polygon> <linearGradient id="SVGID_00000173145718839541998640000006031467115853259418_" gradientUnits="userSpaceOnUse" x1="374.402" y1="218.0699" x2="229.0242" y2="52.8989" gradientTransform="matrix(1 -3.000000e-03 3.000000e-03 1 8.8643 -7.0072)"> <stop offset="0" style="stop-color:#B27F2C"></stop> <stop offset="0.1507" style="stop-color:#B27F2C"></stop> <stop offset="0.4537" style="stop-color:#DDBB5D"></stop> <stop offset="0.6129" style="stop-color:#F7DD7B"></stop> <stop offset="0.7204" style="stop-color:#FDF1A4"></stop> <stop offset="0.8387" style="stop-color:#F7DD7B"></stop> <stop offset="1" style="stop-color:#B27F2C"></stop> </linearGradient> <polygon style="fill:url(#SVGID_00000173145718839541998640000006031467115853259418_);" points="369.6,204.1 380.1,204.1 327.3,135.6 322,142.5 "></polygon> <linearGradient id="SVGID_00000080885439892386599170000006775273475387240581_" gradientUnits="userSpaceOnUse" x1="351.8542" y1="237.9156" x2="206.4765" y2="72.7446" gradientTransform="matrix(1 -3.000000e-03 3.000000e-03 1 8.8643 -7.0072)"> <stop offset="0" style="stop-color:#B27F2C"></stop> <stop offset="0.1507" style="stop-color:#B27F2C"></stop> <stop offset="0.4537" style="stop-color:#DDBB5D"></stop> <stop offset="0.6129" style="stop-color:#F7DD7B"></stop> <stop offset="0.7204" style="stop-color:#FDF1A4"></stop> <stop offset="0.8387" style="stop-color:#F7DD7B"></stop> <stop offset="1" style="stop-color:#B27F2C"></stop> </linearGradient> <polygon style="fill:url(#SVGID_00000080885439892386599170000006775273475387240581_);" points="331,204.2 341.5,204.2 308.1,160.8 302.8,167.7 "></polygon> </g> </g> </g> <g> <g> <path class="st9" d="M101.2,239.4c0-1.3,0.3-2.5,0.9-3.6c0.6-1,1.4-1.9,2.4-2.6c1-0.7,2.2-1.3,3.6-1.6c1.4-0.4,2.8-0.6,4.4-0.6 c1.7,0,3.4,0.2,4.9,0.7c1.5,0.5,2.7,1.1,3.6,1.8c0.7,0.6,1,1.1,1.1,1.6c0.1,0.5-0.1,1-0.4,1.3c-0.4,0.4-0.7,0.5-1.1,0.5 c-0.5,0-1.1-0.2-1.7-0.7c-0.7-0.6-1.6-1-2.6-1.4c-1.1-0.4-2.3-0.5-3.8-0.5c-1.1,0-2.1,0.1-3,0.3c-1,0.2-1.8,0.5-2.5,1 c-0.7,0.4-1.3,0.9-1.7,1.5c-0.4,0.6-0.6,1.3-0.6,2c0,0.8,0.3,1.5,0.8,2.1c0.5,0.5,1.2,1,2.1,1.3c0.9,0.4,1.9,0.6,3,0.9 c1.1,0.2,2.2,0.5,3.4,0.7c1.2,0.3,2.3,0.6,3.4,0.9c1.1,0.4,2.1,0.8,3,1.4c0.9,0.6,1.6,1.3,2.1,2.2c0.5,0.9,0.8,2,0.8,3.2 c0,1.3-0.3,2.5-0.9,3.6c-0.6,1.1-1.4,2-2.5,2.8c-1.1,0.8-2.4,1.4-3.9,1.8c-1.5,0.4-3.2,0.6-5,0.6c-2,0-3.8-0.2-5.2-0.7 c-1.5-0.5-2.6-1.1-3.5-1.8c-0.7-0.6-1.1-1.1-1.2-1.6c-0.1-0.5,0.1-1,0.4-1.3c0.4-0.4,0.8-0.5,1.2-0.5c0.5,0,1.1,0.2,1.7,0.7 c0.7,0.6,1.6,1,2.7,1.4c1.1,0.4,2.5,0.5,4.1,0.5c1.3,0,2.6-0.1,3.6-0.4c1.1-0.3,2-0.6,2.7-1.1c0.7-0.5,1.3-1,1.7-1.7 c0.4-0.6,0.6-1.3,0.6-2.1c0-0.9-0.3-1.6-0.8-2.2c-0.5-0.6-1.2-1-2.1-1.4c-0.9-0.4-1.9-0.7-3-0.9c-1.1-0.2-2.3-0.5-3.4-0.7 c-1.2-0.3-2.3-0.5-3.4-0.9c-1.1-0.3-2.1-0.8-3-1.3c-0.9-0.5-1.6-1.2-2.1-2.1C101.5,241.7,101.2,240.7,101.2,239.4z"></path> <path class="st9" d="M148.8,246.1c0-2.3,0.4-4.4,1.1-6.3c0.7-1.9,1.7-3.5,2.9-4.8c1.3-1.3,2.7-2.3,4.4-3c1.7-0.7,3.6-1.1,5.6-1.1 c2.1,0,3.9,0.4,5.6,1.1c1.7,0.7,3.2,1.7,4.4,3c1.3,1.3,2.2,2.9,2.9,4.8c0.7,1.9,1.1,4,1.1,6.3c0,2.3-0.4,4.4-1.1,6.3 c-0.7,1.9-1.7,3.5-2.9,4.8c-1.3,1.3-2.7,2.3-4.4,3c-1.7,0.7-3.6,1.1-5.6,1.1c-2.1,0-3.9-0.4-5.6-1.1c-1.7-0.7-3.2-1.7-4.4-3 c-1.3-1.3-2.2-2.9-2.9-4.8C149.1,250.5,148.8,248.4,148.8,246.1z M152.2,246.1c0,1.8,0.3,3.4,0.8,4.9c0.5,1.4,1.3,2.7,2.2,3.7 c0.9,1,2.1,1.8,3.4,2.4c1.3,0.5,2.8,0.8,4.3,0.8c1.6,0,3-0.3,4.3-0.8c1.3-0.5,2.4-1.3,3.4-2.4c0.9-1,1.7-2.3,2.2-3.7 c0.5-1.4,0.8-3.1,0.8-4.9c0-1.8-0.3-3.4-0.8-4.9c-0.5-1.4-1.3-2.7-2.2-3.7c-0.9-1-2.1-1.8-3.4-2.4c-1.3-0.5-2.7-0.8-4.3-0.8 c-1.5,0-3,0.3-4.3,0.8c-1.3,0.5-2.5,1.3-3.4,2.4c-0.9,1-1.7,2.3-2.2,3.7C152.4,242.7,152.2,244.3,152.2,246.1z"></path> <path class="st9" d="M202.9,233.1c0-0.5,0.2-0.9,0.5-1.2c0.3-0.3,0.7-0.5,1.2-0.5c0.5,0,0.9,0.2,1.2,0.5c0.3,0.3,0.4,0.7,0.4,1.2 v24.4h13.9c0.5,0,0.9,0.2,1.2,0.5c0.3,0.3,0.5,0.7,0.5,1.2c0,0.5-0.2,0.9-0.5,1.2c-0.3,0.3-0.7,0.4-1.2,0.4h-17.2V233.1z"></path> <path class="st9" d="M247.4,233.1c0-0.5,0.1-0.9,0.4-1.2c0.3-0.3,0.7-0.5,1.2-0.5c0.5,0,0.9,0.2,1.2,0.5c0.3,0.3,0.5,0.7,0.5,1.2 v26.1c0,0.5-0.1,0.9-0.4,1.2c-0.3,0.3-0.7,0.5-1.2,0.5c-0.5,0-0.9-0.2-1.2-0.5c-0.3-0.3-0.5-0.7-0.5-1.2V233.1z"></path> <path class="st9" d="M300.8,236.4c-0.4,0.4-0.8,0.6-1.3,0.6c-0.4,0-0.7-0.2-1.1-0.5c-0.9-0.7-1.9-1.2-3-1.6 c-1.1-0.4-2.3-0.6-3.6-0.6c-1.5,0-3,0.3-4.3,0.8c-1.3,0.5-2.4,1.3-3.4,2.4c-0.9,1-1.7,2.3-2.2,3.7c-0.5,1.4-0.8,3.1-0.8,4.9 c0,1.8,0.3,3.4,0.8,4.9c0.5,1.4,1.3,2.7,2.2,3.7c0.9,1,2.1,1.8,3.4,2.4c1.3,0.5,2.8,0.8,4.3,0.8c2.6,0,4.7-0.7,6.6-2.1 c0.4-0.3,0.8-0.5,1.2-0.5s0.8,0.2,1.2,0.5c0.4,0.4,0.6,0.8,0.6,1.3c0,0.5-0.2,0.8-0.6,1.1c-1.2,1-2.5,1.7-4.1,2.3 c-1.5,0.5-3.2,0.8-5,0.8c-2.1,0-3.9-0.4-5.6-1.1c-1.7-0.7-3.2-1.7-4.4-3c-1.3-1.3-2.2-2.9-2.9-4.8c-0.7-1.9-1.1-4-1.1-6.3 c0-2.3,0.4-4.4,1.1-6.3c0.7-1.9,1.7-3.5,2.9-4.8c1.3-1.3,2.7-2.3,4.4-3c1.7-0.7,3.6-1.1,5.6-1.1c1.8,0,3.4,0.3,4.9,0.8 c1.5,0.5,2.8,1.3,4,2.2c0.4,0.3,0.6,0.7,0.6,1.2C301.3,235.6,301.1,236,300.8,236.4z"></path> <path class="st9" d="M327.8,233.1c0-0.5,0.1-0.9,0.4-1.2s0.7-0.5,1.2-0.5c0.5,0,0.9,0.2,1.2,0.5c0.3,0.3,0.5,0.7,0.5,1.2v26.1 c0,0.5-0.1,0.9-0.4,1.2c-0.3,0.3-0.7,0.5-1.2,0.5c-0.5,0-0.9-0.2-1.2-0.5c-0.3-0.3-0.5-0.7-0.5-1.2V233.1z"></path> <path class="st9" d="M356.6,233.1c0-0.5,0.2-0.9,0.5-1.2c0.3-0.3,0.7-0.5,1.2-0.5H376c0.5,0,0.9,0.1,1.2,0.4 c0.3,0.3,0.4,0.7,0.4,1.2c0,0.5-0.1,0.9-0.4,1.2c-0.3,0.3-0.7,0.5-1.2,0.5h-7.2v24.4c0,0.5-0.1,0.9-0.4,1.2 c-0.3,0.3-0.7,0.5-1.2,0.5c-0.5,0-0.9-0.2-1.2-0.5c-0.3-0.3-0.5-0.7-0.5-1.2v-24.4h-7.1c-0.5,0-0.9-0.2-1.2-0.5 C356.8,234,356.6,233.6,356.6,233.1z"></path> <path class="st9" d="M400.2,246.1c0-2.3,0.4-4.4,1.1-6.3c0.7-1.9,1.7-3.5,2.9-4.8c1.3-1.3,2.7-2.3,4.4-3c1.7-0.7,3.6-1.1,5.6-1.1 c2.1,0,3.9,0.4,5.6,1.1c1.7,0.7,3.2,1.7,4.4,3c1.3,1.3,2.2,2.9,2.9,4.8c0.7,1.9,1.1,4,1.1,6.3c0,2.3-0.4,4.4-1.1,6.3 c-0.7,1.9-1.7,3.5-2.9,4.8c-1.3,1.3-2.7,2.3-4.4,3c-1.7,0.7-3.6,1.1-5.6,1.1c-2.1,0-3.9-0.4-5.6-1.1c-1.7-0.7-3.2-1.7-4.4-3 c-1.3-1.3-2.2-2.9-2.9-4.8C400.6,250.5,400.2,248.4,400.2,246.1z M403.6,246.1c0,1.8,0.3,3.4,0.8,4.9c0.5,1.4,1.3,2.7,2.2,3.7 c0.9,1,2.1,1.8,3.4,2.4c1.3,0.5,2.8,0.8,4.3,0.8c1.6,0,3-0.3,4.3-0.8c1.3-0.5,2.4-1.3,3.4-2.4c0.9-1,1.7-2.3,2.2-3.7 c0.5-1.4,0.8-3.1,0.8-4.9c0-1.8-0.3-3.4-0.8-4.9c-0.5-1.4-1.3-2.7-2.2-3.7c-0.9-1-2.1-1.8-3.4-2.4c-1.3-0.5-2.7-0.8-4.3-0.8 c-1.5,0-3,0.3-4.3,0.8c-1.3,0.5-2.5,1.3-3.4,2.4c-0.9,1-1.7,2.3-2.2,3.7C403.9,242.7,403.6,244.3,403.6,246.1z"></path> <path class="st9" d="M466.9,231.4c1.3,0,2.5,0.2,3.6,0.6c1.1,0.4,2,1,2.7,1.8c0.8,0.8,1.3,1.7,1.7,2.8c0.4,1.1,0.6,2.3,0.6,3.6 c0,2.3-0.6,4.3-1.9,5.8c-1.3,1.5-3,2.4-5.1,2.8l5.1,6.8c0.2,0.2,0.4,0.4,0.6,0.8c0.2,0.3,0.5,0.6,0.7,0.9c0.2,0.3,0.4,0.6,0.6,0.9 c0.2,0.3,0.3,0.6,0.3,0.9c0,0.5-0.2,0.9-0.5,1.2c-0.3,0.3-0.7,0.5-1.2,0.5c-0.3,0-0.6-0.1-0.8-0.2c-0.2-0.2-0.5-0.3-0.7-0.5 c-0.2-0.2-0.4-0.4-0.5-0.7c-0.2-0.3-0.3-0.5-0.5-0.7l-7.3-9.7h-5.6v10.2c0,0.5-0.1,0.9-0.4,1.2c-0.3,0.3-0.7,0.5-1.2,0.5 c-0.5,0-0.9-0.2-1.2-0.5c-0.3-0.3-0.5-0.7-0.5-1.2v-27.7H466.9z M458.7,234.7v10.8h8.1c1.6,0,2.9-0.5,3.9-1.5c1-1,1.5-2.3,1.5-4 c0-1.6-0.5-2.9-1.5-3.9c-1-1-2.3-1.5-3.9-1.5H458.7z"></path> <path class="st9" d="M501.7,239.4c0-1.3,0.3-2.5,0.9-3.6c0.6-1,1.4-1.9,2.4-2.6c1-0.7,2.2-1.3,3.6-1.6c1.4-0.4,2.8-0.6,4.4-0.6 c1.7,0,3.4,0.2,4.9,0.7c1.5,0.5,2.7,1.1,3.6,1.8c0.7,0.6,1,1.1,1.1,1.6c0.1,0.5-0.1,1-0.4,1.3c-0.4,0.4-0.7,0.5-1.1,0.5 c-0.5,0-1.1-0.2-1.7-0.7c-0.7-0.6-1.6-1-2.6-1.4c-1.1-0.4-2.3-0.5-3.8-0.5c-1.1,0-2.1,0.1-3,0.3c-1,0.2-1.8,0.5-2.5,1 c-0.7,0.4-1.3,0.9-1.7,1.5c-0.4,0.6-0.6,1.3-0.6,2c0,0.8,0.3,1.5,0.8,2.1c0.5,0.5,1.2,1,2.1,1.3c0.9,0.4,1.9,0.6,3,0.9 c1.1,0.2,2.2,0.5,3.4,0.7c1.2,0.3,2.3,0.6,3.4,0.9c1.1,0.4,2.1,0.8,3,1.4c0.9,0.6,1.6,1.3,2.1,2.2c0.5,0.9,0.8,2,0.8,3.2 c0,1.3-0.3,2.5-0.9,3.6c-0.6,1.1-1.4,2-2.5,2.8c-1.1,0.8-2.4,1.4-3.9,1.8c-1.5,0.4-3.2,0.6-5,0.6c-2,0-3.8-0.2-5.2-0.7 c-1.5-0.5-2.6-1.1-3.5-1.8c-0.7-0.6-1.1-1.1-1.2-1.6c-0.1-0.5,0.1-1,0.4-1.3c0.4-0.4,0.8-0.5,1.2-0.5c0.5,0,1.1,0.2,1.7,0.7 c0.7,0.6,1.6,1,2.7,1.4c1.1,0.4,2.5,0.5,4.1,0.5c1.3,0,2.6-0.1,3.6-0.4c1.1-0.3,2-0.6,2.7-1.1c0.7-0.5,1.3-1,1.7-1.7 c0.4-0.6,0.6-1.3,0.6-2.1c0-0.9-0.3-1.6-0.8-2.2c-0.5-0.6-1.2-1-2.1-1.4c-0.9-0.4-1.9-0.7-3-0.9c-1.1-0.2-2.3-0.5-3.4-0.7 c-1.2-0.3-2.3-0.5-3.4-0.9c-1.1-0.3-2.1-0.8-3-1.3c-0.9-0.5-1.6-1.2-2.1-2.1C502,241.7,501.7,240.7,501.7,239.4z"></path> </g> <path class="st9" d="M172.9,53.3h34v151h-35.1l-0.1-25.3c-8.1,16.8-30.5,25-46.5,25.3c-42.4,0.3-73.8-25.9-73.8-76.1 c0-49.4,32.8-75.2,74.6-74.9c19.2,0,37.5,9,45.6,23.2L172.9,53.3z M87,128.2c0,27.3,18.9,43.6,42.4,43.6c55.8,0,55.8-86.8,0-86.8 C105.8,84.9,87,100.9,87,128.2z"></path> <path class="st9" d="M390.7,53.3v151H426v-151H390.7z"></path> <path class="st9" d="M533.2,95.1c-10.1-9.5-21.6-12.7-35.2-12.7c-16.7,0-25.9,5.2-25.9,14.1c0,9.2,8.4,14.4,26.5,15.6 c26.8,1.7,60.8,7.8,60.8,45.5c0,25.1-20.5,46.7-61.1,46.7c-22.5,0-45-3.7-65.7-25.4l17.3-25.1c10.1,11.2,33.1,19.6,49,19.9 c13.3,0.3,25.7-6.6,25.7-17c0-9.8-8.1-13.8-28.2-15c-26.8-2-58.8-11.8-58.8-44.1c0-32.9,34-44.4,60-44.4c22.2,0,38.9,4.3,55.3,18.7 L533.2,95.1z"></path> </g> </svg> 