<?xml version="1.0" encoding="UTF-8"?>
<svg id="Layer_2" data-name="Layer 2" xmlns="http://www.w3.org/2000/svg" viewBox="0 0 3281.03 811.79">
  <defs>
    <style>
      .cls-1 {
        fill: #fff;
        stroke-width: 0px;
      }
    </style>
  </defs>
  <g id="Layer_1-2" data-name="Layer 1">
    <g>
      <g>
        <g>
          <path class="cls-1" d="M1484.33,147.4c0,13.37-2.51,24.97-7.54,34.8-5.02,9.83-11.56,17.88-19.61,24.16-8.13,6.28-17.25,10.97-27.37,14.07-10.12,3.1-20.57,4.65-31.36,4.65h-65.16v-7.87c2.14,0,4.93-.2,8.37-.61,3.44-.4,5.71-.87,6.82-1.38,2.22-.96,3.82-2.38,4.82-4.27,1-1.88,1.5-4.16,1.5-6.82v-113.47c0-2.51-.43-4.76-1.27-6.76-.85-1.99-2.53-3.58-5.04-4.76-2.29-1.11-4.76-1.92-7.42-2.44-2.66-.52-4.95-.85-6.87-1v-7.87h68.7c9.46,0,18.76,1.46,27.92,4.38,9.16,2.92,17.14,6.85,23.94,11.8,9.23,6.58,16.47,15.18,21.72,25.82,5.25,10.64,7.87,23.16,7.87,37.56ZM1457.18,147.35c0-10.55-1.4-20.1-4.21-28.62-2.81-8.53-6.91-15.96-12.3-22.31-5.1-6.05-11.36-10.81-18.78-14.28-7.42-3.47-15.68-5.21-24.77-5.21-3.03,0-6.45.06-10.25.17-3.81.11-6.63.2-8.48.28v120.8c0,6.72,1.96,11.37,5.87,13.95,3.91,2.58,9.94,3.87,18.06,3.87,9.38,0,17.58-1.66,24.6-4.98,7.02-3.32,12.71-7.94,17.07-13.84,4.58-6.2,7.92-13.38,10.03-21.54,2.1-8.16,3.16-17.59,3.16-28.29Z"/>
          <path class="cls-1" d="M1617.81,225.08h-70.81v-7.87c1.99-.15,4.88-.37,8.64-.67,3.77-.29,6.43-.74,7.98-1.33,2.44-.96,4.21-2.27,5.32-3.93,1.11-1.66,1.66-3.97,1.66-6.92v-113.92c0-2.58-.41-4.75-1.22-6.48-.81-1.73-2.73-3.19-5.76-4.38-2.22-.89-5.01-1.72-8.37-2.49-3.36-.78-6.11-1.24-8.26-1.39v-7.87h70.81v7.87c-2.29.07-5.02.35-8.2.83-3.18.48-5.95,1.09-8.31,1.83-2.81.89-4.69,2.33-5.65,4.32-.96,2-1.44,4.21-1.44,6.65v113.8c0,2.44.53,4.6,1.61,6.48,1.07,1.88,2.9,3.38,5.49,4.49,1.55.59,4.08,1.24,7.59,1.94,3.51.7,6.48,1.09,8.92,1.16v7.87Z"/>
          <path class="cls-1" d="M1780.77,152.94c3.32,3.7,5.78,7.74,7.37,12.13,1.59,4.4,2.38,9.51,2.38,15.35,0,13.89-5.14,25.34-15.4,34.35-10.27,9.01-23.01,13.52-38.23,13.52-7.02,0-14.04-1.09-21.05-3.27-7.02-2.18-13.08-4.82-18.17-7.92l-4.76,8.09h-8.86l-1.55-53.85h8.98c1.85,6.65,4.01,12.65,6.48,18.01,2.47,5.36,5.74,10.36,9.81,15.02,3.84,4.36,8.33,7.83,13.46,10.42,5.13,2.59,11.1,3.88,17.9,3.88,5.1,0,9.55-.66,13.35-2,3.8-1.33,6.89-3.22,9.25-5.66,2.36-2.44,4.12-5.31,5.26-8.6,1.14-3.29,1.72-7.08,1.72-11.37,0-6.29-1.77-12.15-5.32-17.59-3.55-5.44-8.83-9.56-15.85-12.37-4.8-1.91-10.3-4.03-16.51-6.34-6.2-2.32-11.56-4.51-16.07-6.57-8.86-3.99-15.75-9.21-20.67-15.67-4.91-6.46-7.37-14.9-7.37-25.31,0-5.98,1.22-11.56,3.66-16.73,2.44-5.17,5.91-9.79,10.42-13.85,4.28-3.84,9.34-6.85,15.18-9.03,5.83-2.18,11.93-3.27,18.28-3.27,7.24,0,13.72,1.11,19.45,3.32,5.73,2.22,10.95,4.8,15.68,7.76l4.54-7.54h8.86l.89,52.19h-8.98c-1.63-5.98-3.45-11.71-5.48-17.18-2.03-5.47-4.67-10.42-7.92-14.85-3.18-4.28-7.05-7.7-11.64-10.25-4.58-2.55-10.19-3.82-16.84-3.82-7.02,0-13,2.25-17.95,6.76-4.95,4.51-7.42,10.01-7.42,16.51s1.59,12.43,4.76,16.9c3.18,4.47,7.79,8.14,13.85,11.03,5.39,2.59,10.69,4.82,15.9,6.7,5.21,1.88,10.25,3.9,15.13,6.04,4.43,1.92,8.7,4.1,12.8,6.54,4.1,2.44,7.66,5.28,10.69,8.53Z"/>
          <path class="cls-1" d="M1983.51,110.5h-7.65c-.67-2.66-1.87-5.82-3.61-9.47-1.74-3.66-3.68-7.11-5.83-10.36-2.22-3.4-4.65-6.37-7.28-8.92-2.63-2.55-5.16-4.01-7.61-4.38-2.3-.29-5.18-.52-8.66-.66-3.48-.15-6.7-.22-9.66-.22h-6.44v125.77c0,2.44.52,4.67,1.55,6.7,1.03,2.03,2.84,3.6,5.43,4.71,1.33.52,4.12,1.22,8.37,2.11,4.25.89,7.55,1.37,9.92,1.44v7.87h-74.24v-7.87c2.07-.15,5.23-.44,9.48-.89,4.25-.44,7.18-1,8.81-1.66,2.44-.96,4.23-2.34,5.37-4.16,1.14-1.81,1.72-4.23,1.72-7.26v-126.77h-6.43c-2.29,0-5.14.06-8.53.17-3.4.11-6.65.35-9.75.72-2.44.3-4.97,1.76-7.59,4.38-2.62,2.62-5.04,5.6-7.26,8.92-2.22,3.32-4.17,6.85-5.87,10.58-1.7,3.73-2.88,6.82-3.55,9.25h-7.76v-42.66h137.07v42.66Z"/>
          <path class="cls-1" d="M2110.12,225.08h-70.81v-7.87c2-.15,4.88-.37,8.64-.67,3.77-.29,6.43-.74,7.98-1.33,2.44-.96,4.21-2.27,5.32-3.93,1.11-1.66,1.66-3.97,1.66-6.92v-113.92c0-2.58-.41-4.75-1.22-6.48-.81-1.73-2.73-3.19-5.76-4.38-2.22-.89-5.01-1.72-8.37-2.49-3.36-.78-6.11-1.24-8.26-1.39v-7.87h70.81v7.87c-2.29.07-5.03.35-8.2.83-3.18.48-5.95,1.09-8.31,1.83-2.81.89-4.69,2.33-5.65,4.32-.96,2-1.44,4.21-1.44,6.65v113.8c0,2.44.53,4.6,1.61,6.48,1.07,1.88,2.9,3.38,5.48,4.49,1.55.59,4.08,1.24,7.59,1.94,3.51.7,6.48,1.09,8.92,1.16v7.87Z"/>
          <path class="cls-1" d="M2336.58,75.71c-2.07.07-5.25.66-9.53,1.77-4.29,1.11-7.35,2.26-9.2,3.44-2.66,1.85-4.45,5.39-5.37,10.64-.92,5.25-1.38,11.9-1.38,19.95v115.13h-9.64l-95.3-128.65v81.11c0,9.09.57,16.07,1.72,20.94,1.14,4.88,2.9,8.35,5.26,10.42,1.7,1.63,5.21,3.14,10.53,4.54,5.32,1.4,8.83,2.14,10.53,2.22v7.87h-64.49v-7.87c2-.15,5.36-.87,10.08-2.16,4.73-1.29,7.68-2.46,8.86-3.49,2.58-2.07,4.36-5.23,5.32-9.47.96-4.25,1.44-11.51,1.44-21.78v-77.46c0-3.4-.59-6.8-1.77-10.2-1.18-3.4-2.77-6.02-4.76-7.87-2.66-2.44-6.26-4.52-10.8-6.26-4.54-1.73-8.22-2.68-11.03-2.83v-7.87h44.92l88.38,119.88v-74.78c0-9.16-.59-16.19-1.77-21.11-1.18-4.91-2.88-8.18-5.1-9.8-2.07-1.4-5.45-2.77-10.14-4.1-4.69-1.33-8.26-2.07-10.69-2.22v-7.87h63.94v7.87Z"/>
          <path class="cls-1" d="M2463.91,228.85c-9.37,0-18.36-1.85-26.96-5.54-8.6-3.69-16.22-9.02-22.86-15.97-6.57-6.95-11.81-15.43-15.72-25.45-3.91-10.02-5.87-21.31-5.87-33.88s1.92-23.97,5.76-34.21c3.84-10.24,9.15-19.05,15.94-26.45,6.72-7.32,14.65-12.97,23.8-16.96,9.15-3.99,18.93-5.99,29.34-5.99,7.75,0,14.76.96,21.03,2.88,6.27,1.92,12.25,4.62,17.93,8.09l4.54-7.54h8.86l1,56.07h-9.09c-1.18-5.47-2.95-11.39-5.31-17.79-2.36-6.39-5.13-11.8-8.3-16.23-3.54-5.02-7.75-8.96-12.62-11.8-4.87-2.84-10.44-4.27-16.71-4.27-7.16,0-13.82,1.59-19.98,4.77-6.16,3.18-11.49,7.87-15.99,14.08-4.28,5.99-7.64,13.61-10.07,22.85-2.43,9.24-3.65,19.55-3.65,30.94,0,10.05,1.27,19.28,3.82,27.67,2.55,8.39,6.18,15.77,10.9,22.12,4.72,6.29,10.31,11.2,16.77,14.75,6.46,3.55,13.67,5.32,21.64,5.32,5.98,0,11.47-.94,16.49-2.83,5.02-1.88,9.37-4.38,13.06-7.48,3.69-3.25,6.93-6.94,9.74-11.08,2.81-4.14,5.09-8.64,6.86-13.52l8.31,3.99c-6.35,15.59-14.76,26.73-25.25,33.41-10.48,6.69-22.95,10.03-37.42,10.03Z"/>
          <path class="cls-1" d="M2713.69,110.5h-7.65c-.67-2.66-1.87-5.82-3.61-9.47-1.74-3.66-3.68-7.11-5.83-10.36-2.22-3.4-4.65-6.37-7.28-8.92-2.63-2.55-5.17-4.01-7.61-4.38-2.3-.29-5.18-.52-8.66-.66-3.48-.15-6.7-.22-9.66-.22h-6.44v125.77c0,2.44.52,4.67,1.55,6.7,1.03,2.03,2.84,3.6,5.43,4.71,1.33.52,4.12,1.22,8.37,2.11,4.25.89,7.55,1.37,9.92,1.44v7.87h-74.24v-7.87c2.07-.15,5.22-.44,9.47-.89,4.25-.44,7.18-1,8.81-1.66,2.44-.96,4.23-2.34,5.37-4.16,1.15-1.81,1.72-4.23,1.72-7.26v-126.77h-6.43c-2.29,0-5.14.06-8.53.17-3.4.11-6.65.35-9.75.72-2.44.3-4.97,1.76-7.59,4.38-2.62,2.62-5.04,5.6-7.26,8.92-2.22,3.32-4.17,6.85-5.87,10.58-1.7,3.73-2.88,6.82-3.55,9.25h-7.76v-42.66h137.07v42.66Z"/>
          <path class="cls-1" d="M2840.31,225.08h-70.81v-7.87c1.99-.15,4.88-.37,8.64-.67,3.77-.29,6.43-.74,7.98-1.33,2.44-.96,4.21-2.27,5.32-3.93,1.11-1.66,1.66-3.97,1.66-6.92v-113.92c0-2.58-.41-4.75-1.22-6.48-.81-1.73-2.73-3.19-5.76-4.38-2.22-.89-5.01-1.72-8.37-2.49-3.36-.78-6.11-1.24-8.26-1.39v-7.87h70.81v7.87c-2.29.07-5.02.35-8.2.83-3.18.48-5.95,1.09-8.31,1.83-2.81.89-4.69,2.33-5.65,4.32-.96,2-1.44,4.21-1.44,6.65v113.8c0,2.44.53,4.6,1.61,6.48,1.07,1.88,2.9,3.38,5.49,4.49,1.55.59,4.08,1.24,7.59,1.94,3.51.7,6.48,1.09,8.92,1.16v7.87Z"/>
          <path class="cls-1" d="M3032.41,86.46c6.94,7.24,12.37,15.98,16.29,26.21,3.91,10.23,5.87,21.55,5.87,33.96s-1.99,23.82-5.98,34.02c-3.99,10.19-9.53,18.88-16.62,26.04-6.87,7.09-14.85,12.56-23.94,16.4-9.09,3.84-18.76,5.76-29.03,5.76-10.93,0-21.04-2.05-30.31-6.15-9.27-4.1-17.23-9.81-23.88-17.12-6.65-7.16-11.88-15.86-15.68-26.1-3.81-10.23-5.71-21.18-5.71-32.86,0-12.78,2-24.17,5.98-34.19,3.99-10.01,9.49-18.67,16.51-25.98,6.94-7.24,15.01-12.78,24.21-16.62,9.2-3.84,18.82-5.76,28.87-5.76s20.24,1.96,29.48,5.87c9.23,3.92,17.21,9.42,23.94,16.51ZM3015.9,197.93c4.14-6.72,7.15-14.33,9.03-22.83,1.88-8.49,2.83-17.99,2.83-28.48s-1.05-20.68-3.16-29.7c-2.11-9.01-5.19-16.69-9.25-23.05-4.06-6.28-9.16-11.17-15.29-14.68-6.13-3.51-13.15-5.26-21.05-5.26-8.87,0-16.4,2.03-22.61,6.1-6.21,4.06-11.27,9.49-15.18,16.29-3.7,6.5-6.45,14.11-8.26,22.83-1.81,8.72-2.72,17.88-2.72,27.48,0,10.64.96,20.24,2.88,28.81,1.92,8.57,4.95,16.18,9.09,22.83,3.99,6.5,9.01,11.58,15.07,15.24,6.06,3.66,13.3,5.49,21.72,5.49,7.9,0,15.03-1.85,21.39-5.54,6.35-3.69,11.52-8.86,15.51-15.51Z"/>
          <path class="cls-1" d="M3281.03,75.71c-2.07.07-5.25.66-9.53,1.77-4.29,1.11-7.35,2.26-9.2,3.44-2.66,1.85-4.45,5.39-5.37,10.64-.92,5.25-1.39,11.9-1.39,19.95v115.13h-9.64l-95.3-128.65v81.11c0,9.09.57,16.07,1.72,20.94,1.15,4.88,2.9,8.35,5.26,10.42,1.7,1.63,5.21,3.14,10.53,4.54,5.32,1.4,8.83,2.14,10.53,2.22v7.87h-64.49v-7.87c2-.15,5.36-.87,10.08-2.16,4.73-1.29,7.68-2.46,8.87-3.49,2.58-2.07,4.36-5.23,5.32-9.47.96-4.25,1.44-11.51,1.44-21.78v-77.46c0-3.4-.59-6.8-1.77-10.2-1.18-3.4-2.77-6.02-4.76-7.87-2.66-2.44-6.26-4.52-10.8-6.26-4.54-1.73-8.22-2.68-11.02-2.83v-7.87h44.92l88.38,119.88v-74.78c0-9.16-.59-16.19-1.77-21.11-1.18-4.91-2.88-8.18-5.1-9.8-2.07-1.4-5.45-2.77-10.14-4.1-4.69-1.33-8.26-2.07-10.69-2.22v-7.87h63.94v7.87Z"/>
          <path class="cls-1" d="M1750.37,348.04c-1.85.07-3.99.5-6.43,1.27-2.44.78-4.69,1.79-6.76,3.05-2.59,1.63-4.67,3.49-6.26,5.6-1.59,2.11-2.97,5.04-4.16,8.81-5.25,17.06-11.34,36.99-18.28,59.78-6.95,22.79-14.44,47.08-22.5,72.86h-10.2l-39.7-121.11-41.27,121.11h-9.79c-7.31-25.85-14.89-52.69-22.72-80.5-7.83-27.81-13.08-46.45-15.74-55.9-.67-2.29-1.65-4.32-2.94-6.1-1.29-1.77-3.05-3.4-5.26-4.88-1.85-1.25-4.01-2.2-6.48-2.83-2.47-.63-4.71-1.01-6.7-1.16v-7.87h64.1v7.87c-5.62.3-10.4.85-14.35,1.66-3.95.81-5.92,2.18-5.92,4.1,0,.74.11,1.72.33,2.94.22,1.22.4,2.2.55,2.94,1.7,6.5,4.7,17.25,9.02,32.24,4.32,15,10.72,37.45,19.21,67.37l39.25-116.9h10.84l39.6,119.39c5.34-18.35,9.93-34.39,13.79-48.12,3.85-13.73,7.04-25.47,9.56-35.24,1.78-6.88,2.89-11.6,3.33-14.15s.66-4.71.66-6.48c0-2.51-1.72-4.62-5.15-6.32-3.44-1.7-8.99-2.84-16.68-3.44v-7.87h57.03v7.87Z"/>
          <path class="cls-1" d="M1956.44,497.41h-42.34c-9.37-14.7-17.84-27.41-25.41-38.12-7.56-10.71-15.78-21.76-24.63-33.13h-16.11v49.86c0,2.59.41,4.86,1.22,6.82.81,1.96,2.55,3.45,5.21,4.49,1.33.52,3.66,1,6.98,1.44,3.32.44,6.13.7,8.42.78v7.87h-66.49v-7.87c1.77-.15,4.34-.41,7.7-.78,3.36-.37,5.71-.85,7.04-1.44,2.22-.96,3.82-2.36,4.82-4.21,1-1.85,1.5-4.21,1.5-7.09v-113.69c0-2.59-.37-4.88-1.11-6.87-.74-2-2.48-3.51-5.21-4.54-1.85-.66-4.25-1.27-7.2-1.83-2.96-.55-5.47-.9-7.54-1.05v-7.87h72.58c6.65,0,12.89.68,18.73,2.05,5.84,1.37,11.12,3.57,15.85,6.59,4.58,2.96,8.24,6.82,10.97,11.58,2.73,4.76,4.1,10.51,4.1,17.23,0,6.06-.92,11.41-2.77,16.07-1.85,4.65-4.58,8.68-8.2,12.08-3.32,3.18-7.31,5.93-11.97,8.26-4.65,2.33-9.79,4.3-15.4,5.93,7.76,10.27,14.2,18.91,19.34,25.93,5.13,7.02,11.43,15.55,18.89,25.6,3.25,4.43,6.19,7.7,8.81,9.81,2.62,2.11,5.23,3.82,7.81,5.15,1.92.96,4.32,1.7,7.2,2.22,2.88.52,5.28.81,7.2.89v7.87ZM1898.15,380.23c0-9.51-2.73-17.06-8.2-22.62-5.47-5.57-13.19-8.35-23.16-8.35h-18.84v67.37h14.52c10.2,0,18.69-3.26,25.49-9.79,6.8-6.53,10.19-15.4,10.19-26.61Z"/>
          <path class="cls-1" d="M2154.53,497.41h-65.36v-7.87c5.76-.37,10.55-1.11,14.35-2.22,3.8-1.11,5.71-2.47,5.71-4.1,0-.66-.07-1.48-.22-2.44-.15-.96-.37-1.81-.66-2.55l-13.02-35.24h-55.2c-2.07,5.17-3.75,9.68-5.05,13.52-1.29,3.84-2.46,7.39-3.49,10.64-.96,3.18-1.63,5.76-2,7.76-.37,2-.55,3.62-.55,4.88,0,2.96,2.33,5.25,6.98,6.87,4.65,1.63,9.9,2.59,15.74,2.88v7.87h-59.22v-7.87c1.92-.15,4.32-.57,7.2-1.28,2.88-.7,5.25-1.64,7.09-2.82,2.95-2,5.25-4.08,6.87-6.26,1.63-2.18,3.21-5.19,4.76-9.03,7.9-19.72,16.62-41.89,26.15-66.49,9.53-24.6,18.03-46.5,25.49-65.71h8.86l52.41,135.63c1.11,2.88,2.36,5.21,3.77,6.98,1.4,1.77,3.36,3.51,5.87,5.21,1.7,1.04,3.91,1.9,6.65,2.6,2.73.7,5.02,1.09,6.87,1.16v7.87ZM2091.26,433.14l-23.82-61.02-23.48,61.02h47.29Z"/>
          <path class="cls-1" d="M2325.91,378.96c0,8.2-1.61,15.46-4.82,21.77-3.21,6.32-7.67,11.54-13.35,15.68-5.62,4.14-11.78,7.17-18.51,9.09-6.72,1.92-13.85,2.88-21.39,2.88h-17.62v47.65c0,2.59.42,4.86,1.28,6.82.85,1.96,2.6,3.45,5.26,4.49,1.33.52,3.67,1,7.04,1.44,3.36.44,6.44.7,9.25.78v7.87h-67.48v-7.87c1.77-.15,4.34-.41,7.7-.78,3.36-.37,5.71-.85,7.04-1.44,2.22-.96,3.82-2.36,4.82-4.21,1-1.85,1.5-4.21,1.5-7.09v-113.47c0-2.59-.37-4.91-1.11-6.98-.74-2.07-2.48-3.62-5.21-4.65-2.81-.96-5.6-1.64-8.37-2.05s-5.15-.68-7.15-.83v-7.87h71.81c14.63,0,26.5,3.53,35.63,10.58,9.12,7.06,13.68,16.46,13.68,28.2ZM2292.22,405.77c2.51-3.55,4.17-7.22,4.99-11.03.81-3.8,1.22-7.22,1.22-10.25,0-4.21-.5-8.49-1.5-12.85-1-4.36-2.71-8.16-5.15-11.41-2.59-3.47-5.98-6.17-10.2-8.09-4.21-1.92-9.46-2.88-15.74-2.88h-15.62v69.48h11.3c7.98,0,14.46-1.24,19.45-3.71,4.99-2.47,8.73-5.56,11.25-9.25Z"/>
          <path class="cls-1" d="M2509.7,378.96c0,8.2-1.61,15.46-4.82,21.77-3.21,6.32-7.67,11.54-13.35,15.68-5.62,4.14-11.78,7.17-18.51,9.09-6.72,1.92-13.85,2.88-21.39,2.88h-17.62v47.65c0,2.59.42,4.86,1.28,6.82.85,1.96,2.6,3.45,5.26,4.49,1.33.52,3.67,1,7.04,1.44,3.36.44,6.44.7,9.25.78v7.87h-67.48v-7.87c1.77-.15,4.34-.41,7.7-.78,3.36-.37,5.71-.85,7.04-1.44,2.22-.96,3.82-2.36,4.82-4.21,1-1.85,1.5-4.21,1.5-7.09v-113.47c0-2.59-.37-4.91-1.11-6.98-.74-2.07-2.48-3.62-5.21-4.65-2.81-.96-5.6-1.64-8.37-2.05-2.77-.41-5.15-.68-7.15-.83v-7.87h71.81c14.63,0,26.5,3.53,35.63,10.58,9.12,7.06,13.68,16.46,13.68,28.2ZM2476.01,405.77c2.51-3.55,4.17-7.22,4.99-11.03.81-3.8,1.22-7.22,1.22-10.25,0-4.21-.5-8.49-1.5-12.85-1-4.36-2.71-8.16-5.15-11.41-2.59-3.47-5.98-6.17-10.2-8.09-4.21-1.92-9.46-2.88-15.74-2.88h-15.62v69.48h11.3c7.98,0,14.46-1.24,19.45-3.71,4.99-2.47,8.73-5.56,11.25-9.25Z"/>
          <path class="cls-1" d="M2641.85,497.41h-70.81v-7.87c1.99-.15,4.88-.37,8.64-.67,3.77-.29,6.43-.74,7.98-1.33,2.44-.96,4.21-2.27,5.32-3.93,1.11-1.66,1.66-3.97,1.66-6.92v-113.92c0-2.58-.41-4.75-1.22-6.48-.81-1.73-2.73-3.19-5.76-4.38-2.22-.89-5.01-1.72-8.37-2.49-3.36-.78-6.11-1.24-8.26-1.39v-7.87h70.81v7.87c-2.29.07-5.02.35-8.2.83-3.18.48-5.95,1.09-8.31,1.83-2.81.89-4.69,2.33-5.65,4.32-.96,2-1.44,4.21-1.44,6.65v113.8c0,2.44.53,4.6,1.61,6.48,1.07,1.88,2.9,3.38,5.49,4.49,1.55.59,4.08,1.24,7.59,1.94,3.51.7,6.48,1.09,8.92,1.16v7.87Z"/>
          <path class="cls-1" d="M2868.31,348.04c-2.07.07-5.25.66-9.53,1.77-4.29,1.11-7.35,2.26-9.2,3.44-2.66,1.85-4.45,5.39-5.37,10.64-.92,5.25-1.38,11.9-1.38,19.95v115.13h-9.64l-95.3-128.65v81.11c0,9.09.57,16.07,1.72,20.94,1.14,4.88,2.9,8.35,5.26,10.42,1.7,1.63,5.21,3.14,10.53,4.54,5.32,1.4,8.83,2.14,10.53,2.22v7.87h-64.49v-7.87c2-.15,5.36-.87,10.08-2.16,4.73-1.29,7.68-2.46,8.86-3.49,2.58-2.07,4.36-5.23,5.32-9.47.96-4.25,1.44-11.51,1.44-21.78v-77.46c0-3.4-.59-6.8-1.77-10.2-1.18-3.4-2.77-6.02-4.76-7.87-2.66-2.44-6.26-4.52-10.8-6.26-4.54-1.73-8.22-2.68-11.03-2.83v-7.87h44.92l88.38,119.88v-74.78c0-9.16-.59-16.19-1.77-21.11-1.18-4.91-2.88-8.18-5.1-9.8-2.07-1.4-5.45-2.77-10.14-4.1-4.69-1.33-8.26-2.07-10.69-2.22v-7.87h63.94v7.87Z"/>
          <path class="cls-1" d="M3078.58,434.69c-1.77.22-4.16.57-7.15,1.05-2.99.48-5.41,1.16-7.26,2.05-2.22,1.11-3.79,2.68-4.71,4.71-.92,2.03-1.38,4.42-1.38,7.15v12.19c0,8.86.06,14.85.17,17.95.11,3.1.24,5.65.39,7.65-9.83,4.43-19.61,7.83-29.36,10.19-9.75,2.36-19.32,3.55-28.7,3.55-10.05,0-19.72-1.88-29.03-5.65-9.31-3.77-17.44-9.13-24.38-16.08-7.02-7.02-12.6-15.56-16.73-25.61s-6.2-21.29-6.2-33.71,1.97-23.08,5.93-33.32c3.95-10.24,9.55-19.13,16.79-26.67,7.02-7.39,15.38-13.14,25.1-17.24,9.71-4.1,20.11-6.15,31.19-6.15,8.86,0,16.58,1.07,23.16,3.21,6.57,2.14,12.37,4.73,17.4,7.76l4.54-7.54h8.87l1,54.96h-9.09c-1.55-6.06-3.48-12.02-5.77-17.9-2.29-5.87-5.25-11.14-8.88-15.79-3.62-4.65-8.04-8.37-13.26-11.14-5.22-2.77-11.44-4.16-18.69-4.16-7.91,0-14.98,1.61-21.19,4.82-6.21,3.22-11.61,8-16.2,14.36-4.51,6.14-7.99,13.79-10.43,22.96-2.44,9.17-3.66,19.41-3.66,30.72,0,9.98,1.2,19.39,3.6,28.22,2.4,8.83,5.9,16.47,10.49,22.9,4.58,6.58,10.32,11.75,17.2,15.53,6.88,3.77,14.68,5.66,23.41,5.66,6.51,0,12.45-1,17.81-2.99,5.36-1.99,9.15-4.1,11.37-6.32.59-3.84.91-7.72.94-11.64.04-3.91.06-7.24.06-9.97v-8.64c0-3.1-.43-5.85-1.27-8.26-.85-2.4-2.6-4.16-5.26-5.26-2.44-1.11-5.74-1.94-9.92-2.49-4.17-.55-7.44-.9-9.81-1.05v-8.09h68.92v8.09Z"/>
        </g>
        <g>
          <path class="cls-1" d="M536.13,282.41c0,47.5-8.9,88.66-26.75,123.5-17.85,34.89-41.02,63.49-69.63,85.76-28.84,22.32-61.2,38.93-97.14,49.97-35.93,10.99-73.05,16.51-111.32,16.51H0v-27.94c7.61,0,17.51-.71,29.7-2.14,12.18-1.43,20.27-3.09,24.18-4.95,7.9-3.38,13.56-8.42,17.13-15.13,3.52-6.66,5.28-14.75,5.28-24.18V81.05c0-8.95-1.48-16.94-4.52-24.03-3-7.04-8.99-12.71-17.89-16.9-8.14-3.95-16.9-6.81-26.37-8.66-9.42-1.81-17.56-3-24.37-3.52V0h243.86c33.6,0,66.63,5.19,99.13,15.52,32.51,10.38,60.82,24.37,84.95,41.93,32.79,23.32,58.49,53.87,77.1,91.61,18.66,37.79,27.94,82.24,27.94,133.35ZM439.75,282.22c0-37.46-5-71.34-14.94-101.61-9.95-30.27-24.51-56.63-43.64-79.19-18.09-21.46-40.31-38.36-66.68-50.69-26.37-12.33-55.68-18.47-87.9-18.47-10.76,0-22.89.19-36.41.57-13.52.38-23.56.71-30.08,1v428.81c0,23.84,6.95,40.36,20.85,49.5,13.9,9.19,35.27,13.75,64.11,13.75,33.31,0,62.39-5.9,87.33-17.66,24.89-11.8,45.12-28.17,60.58-49.16,16.23-21.99,28.13-47.5,35.6-76.43,7.47-28.94,11.18-62.44,11.18-100.42Z"/>
          <path class="cls-1" d="M1142.37,27.94c-6.57.24-14.18,1.76-22.84,4.52-8.66,2.76-16.66,6.33-23.99,10.8-9.19,5.76-16.61,12.37-22.23,19.85-5.66,7.47-10.57,17.94-14.75,31.32-18.61,60.54-40.26,131.31-64.92,212.21-24.65,80.86-51.26,167.1-79.81,258.62h-36.27l-140.87-429.9-146.49,429.9h-34.74c-25.94-91.81-52.83-187.04-80.62-285.79-27.79-98.71-46.45-164.86-55.87-198.41-2.33-8.14-5.85-15.37-10.42-21.65-4.57-6.28-10.8-12.04-18.7-17.32-6.52-4.43-14.18-7.81-22.99-9.99-8.8-2.24-80.32-7.99-87.41-8.51L162.81,0h407.78v27.94c-19.94,1.05-36.93,3-50.97,5.9-13.99,2.86-20.99,7.71-20.99,14.56,0,2.62.38,6.09,1.14,10.42.81,4.28,1.43,7.81,1.95,10.42,6.04,23.03,16.7,61.2,32.03,114.46,15.32,53.21,38.07,132.92,68.2,239.1L741.26,7.85h38.5l140.54,423.81c18.94-65.15,35.27-122.07,48.97-170.81,13.66-48.73,24.99-90.43,33.93-125.07,6.28-24.46,10.23-41.17,11.8-50.21,1.57-9.09,2.38-16.75,2.38-23.03,0-8.9-6.09-16.37-18.32-22.42-12.18-6.04-31.89-10.09-59.16-12.18V0h202.46v27.94Z"/>
        </g>
      </g>
      <g>
        <path class="cls-1" d="M32.43,708.02v101.91H15.97v-101.91h16.47Z"/>
        <path class="cls-1" d="M90.57,752.01c-2.86-4.18-14.79-24.01-14.79-24.01l-.5.15s1.85,21.68,1.85,26.95v54.83h-16.47v-101.91h17.81l39.99,59.78h.34l39.99-59.78h17.81v101.91h-16.47v-54.83c0-5.27,1.85-26.95,1.85-26.95l-.5-.15s-11.93,19.82-14.79,24.01l-25.88,38.72h-4.37l-25.88-38.72Z"/>
        <path class="cls-1" d="M252.04,708.02l49.4,101.91h-17.31l-13.27-27.26h-49.9l-13.11,27.26h-17.31l49.4-101.91h12.1ZM226.33,771.52h39.15l-8.23-17.04c-3.19-6.66-10.92-27.57-10.92-27.57h-.67s-7.73,20.75-10.92,27.57l-8.4,17.04Z"/>
        <path class="cls-1" d="M322.95,759.6c0,23.85,18.32,38.56,38.65,38.56,15.46,0,28.57-6.2,33.27-10.38v-18.28h-30.75v-12.7h47.22v53.12h-11.59l-4.54-11.93h-1.18c-8.23,11-18.32,13.78-32.43,13.78-35.62,0-55.45-23.08-55.45-52.19,0-31.13,23.69-53.43,58.14-53.43,23.02,0,35.62,7.74,43.52,14.4l-7.9,11.77c-10.75-7.59-20.83-12.55-35.62-12.55-26.21,0-41.33,16.88-41.33,39.8Z"/>
        <path class="cls-1" d="M454.34,708.02v101.91h-16.47v-101.91h16.47Z"/>
        <path class="cls-1" d="M564.9,708.02h16.47v101.91h-14.79l-68.89-77.9h-.34s1.68,17.5,1.68,25.86v52.04h-16.47v-101.91h14.79l68.89,77.9h.34s-1.68-17.81-1.68-23.7v-54.21Z"/>
        <path class="cls-1" d="M656.81,708.02l49.4,101.91h-17.31l-13.27-27.26h-49.91l-13.11,27.26h-17.31l49.4-101.91h12.1ZM631.1,771.52h39.15l-8.23-17.04c-3.19-6.66-10.92-27.57-10.92-27.57h-.67s-7.73,20.75-10.92,27.57l-8.4,17.04Z"/>
        <path class="cls-1" d="M749.73,721.65h-43.86v-13.63h104.18v13.63h-43.86v88.28h-16.47v-88.28Z"/>
        <path class="cls-1" d="M840.47,708.02v101.91h-16.47v-101.91h16.47Z"/>
        <path class="cls-1" d="M977.07,758.36c0,30.67-24.03,53.43-58.81,53.43s-58.81-21.22-58.81-53.43c0-29.58,25.88-52.19,58.81-52.19s58.81,22.61,58.81,52.19ZM876.59,758.36c0,25.4,18.15,39.8,41.67,39.8s41.67-14.4,41.67-39.8c0-23.08-17.98-38.56-41.67-38.56s-41.67,15.49-41.67,38.56Z"/>
        <path class="cls-1" d="M1078.39,708.02h16.47v101.91h-14.79l-68.89-77.9h-.34s1.68,17.5,1.68,25.86v52.04h-16.47v-101.91h14.79l68.89,77.9h.34s-1.68-17.81-1.68-23.7v-54.21Z"/>
        <path class="cls-1" d="M1152.15,759.75h41.67v11.15h-41.67v-11.15Z"/>
        <path class="cls-1" d="M1241.88,759.91c0-29.58,24.36-53.74,59.15-53.74,24.03,0,34.95,8.36,43.02,14.71l-8.91,11.77c-9.91-8.05-20.84-12.86-35.12-12.86-26.04,0-41.67,17.81-41.67,40.11s15.96,38.25,43.02,38.25c18.82,0,30.08-9.14,37.97-15.8l8.74,10.38c-6.22,6.81-21.17,19.05-46.71,19.05-39.82,0-59.48-23.23-59.48-51.88Z"/>
        <path class="cls-1" d="M1365.37,708.02h37.64c29.07,0,41.67,13.32,41.67,31.13,0,10.84-5.38,21.99-19.16,27.26v.62l30.75,42.9h-18.99l-29.07-40.42h-26.38v40.42h-16.47v-101.91ZM1401.33,756.81c18.65,0,26.55-5.27,26.55-17.66,0-10.38-5.54-17.5-24.7-17.5h-21.34v35.16h19.49Z"/>
        <path class="cls-1" d="M1486.69,763.93v32.37h66.71v13.63h-83.17v-101.91h79.81v13.63h-63.35v29.58h56.63v12.7h-56.63Z"/>
        <path class="cls-1" d="M1617.92,708.02l49.4,101.91h-17.31l-13.27-27.26h-49.9l-13.11,27.26h-17.31l49.4-101.91h12.1ZM1592.21,771.52h39.15l-8.23-17.04c-3.19-6.66-10.92-27.57-10.92-27.57h-.67s-7.73,20.75-10.92,27.57l-8.4,17.04Z"/>
        <path class="cls-1" d="M1710.84,721.65h-43.86v-13.63h104.18v13.63h-43.86v88.28h-16.47v-88.28Z"/>
        <path class="cls-1" d="M1801.57,708.02v101.91h-16.47v-101.91h16.47Z"/>
        <path class="cls-1" d="M1938.18,758.36c0,30.67-24.03,53.43-58.81,53.43s-58.81-21.22-58.81-53.43c0-29.58,25.88-52.19,58.81-52.19s58.81,22.61,58.81,52.19ZM1837.69,758.36c0,25.4,18.15,39.8,41.67,39.8s41.67-14.4,41.67-39.8c0-23.08-17.98-38.56-41.67-38.56s-41.67,15.49-41.67,38.56Z"/>
        <path class="cls-1" d="M2039.5,708.02h16.47v101.91h-14.79l-68.89-77.9h-.34s1.68,17.5,1.68,25.86v52.04h-16.47v-101.91h14.79l68.89,77.9h.34s-1.68-17.81-1.68-23.7v-54.21Z"/>
        <path class="cls-1" d="M2113.26,759.75h41.67v11.15h-41.67v-11.15Z"/>
        <path class="cls-1" d="M2212.22,708.02h37.64c29.07,0,41.67,13.32,41.67,31.13,0,10.84-5.38,21.99-19.16,27.26v.62l30.75,42.9h-18.99l-29.07-40.42h-26.38v40.42h-16.47v-101.91ZM2248.18,756.81c18.65,0,26.55-5.27,26.55-17.66,0-10.38-5.54-17.5-24.7-17.5h-21.34v35.16h19.49Z"/>
        <path class="cls-1" d="M2333.54,763.93v32.37h66.71v13.63h-83.17v-101.91h79.81v13.63h-63.35v29.58h56.63v12.7h-56.63Z"/>
        <path class="cls-1" d="M2499.88,708.02h16.47v101.91h-14.79l-68.89-77.9h-.34s1.68,17.5,1.68,25.86v52.04h-16.47v-101.91h14.79l68.89,77.9h.34s-1.68-17.81-1.68-23.7v-54.21Z"/>
        <path class="cls-1" d="M2652.95,758.36c0,30.67-24.03,53.43-58.81,53.43s-58.81-21.22-58.81-53.43c0-29.58,25.88-52.19,58.81-52.19s58.81,22.61,58.81,52.19ZM2552.47,758.36c0,25.4,18.15,39.8,41.67,39.8s41.67-14.4,41.67-39.8c0-23.08-17.98-38.56-41.67-38.56s-41.67,15.49-41.67,38.56Z"/>
        <path class="cls-1" d="M2657.66,708.02h17.64l29.41,63.04c2.18,4.96,6.55,18.43,6.55,18.43h1.01s4.37-13.47,6.55-18.43l29.41-63.04h17.64l-47.55,101.91h-13.11l-47.55-101.91Z"/>
        <path class="cls-1" d="M2827.03,708.02l49.4,101.91h-17.31l-13.27-27.26h-49.9l-13.11,27.26h-17.31l49.4-101.91h12.1ZM2801.32,771.52h39.15l-8.23-17.04c-3.19-6.66-10.92-27.57-10.92-27.57h-.67s-7.73,20.75-10.92,27.57l-8.4,17.04Z"/>
        <path class="cls-1" d="M2919.94,721.65h-43.86v-13.63h104.18v13.63h-43.86v88.28h-16.47v-88.28Z"/>
        <path class="cls-1" d="M3010.68,708.02v101.91h-16.47v-101.91h16.47Z"/>
        <path class="cls-1" d="M3147.28,758.36c0,30.67-24.03,53.43-58.81,53.43s-58.81-21.22-58.81-53.43c0-29.58,25.88-52.19,58.81-52.19s58.81,22.61,58.81,52.19ZM3046.8,758.36c0,25.4,18.15,39.8,41.67,39.8s41.67-14.4,41.67-39.8c0-23.08-17.98-38.56-41.67-38.56s-41.67,15.49-41.67,38.56Z"/>
        <path class="cls-1" d="M3248.6,708.02h16.47v101.91h-14.79l-68.89-77.9h-.34s1.68,17.5,1.68,25.86v52.04h-16.47v-101.91h14.79l68.89,77.9h.34s-1.68-17.81-1.68-23.7v-54.21Z"/>
      </g>
    </g>
  </g>
</svg>