<?xml version="1.0" encoding="utf-8"?>
<!-- Generator: Adobe Illustrator 28.0.0, SVG Export Plug-In . SVG Version: 6.00 Build 0)  -->
<svg version="1.1" id="uuid-c9e696e5-2628-463d-8c6d-5610bdc2ff93"
	 xmlns="http://www.w3.org/2000/svg" xmlns:xlink="http://www.w3.org/1999/xlink" x="0px" y="0px" viewBox="0 0 1742.3 357"
	 style="enable-background:new 0 0 1742.3 357;" xml:space="preserve">
<style type="text/css">
	.st0{fill:url(#SVGID_1_);}
	.st1{fill:#FFFFFF;}
</style>
<linearGradient id="SVGID_1_" gradientUnits="userSpaceOnUse" x1="9.6" y1="320.5" x2="450.6" y2="320.5" gradientTransform="matrix(1 0 0 1 0 -142)">
	<stop  offset="0" style="stop-color:#B17E29"/>
	<stop  offset="0.4" style="stop-color:#F5DC7B"/>
	<stop  offset="0.6" style="stop-color:#F5DC7B"/>
	<stop  offset="1" style="stop-color:#B17E29"/>
</linearGradient>
<path class="st0" d="M389,120.5c0,22.9-18.4,41.5-41.1,41.5H330v-25h17.9c9.3,0,16.9-7.6,16.9-17s-7.6-17-16.9-17h-36.1
	c-9.3,0-16.8,7.6-16.8,17v192h-24V120.5c0-22.9,18.4-41.5,41.1-41.5h35.8C370.6,79,389,97.6,389,120.5z M127.2,79H91
	c-22.8,0-41.3,18.6-41.3,41.5S68.2,162,91,162h18v-25H91c-9.4,0-17-7.6-17-17s7.6-17,17-17h36c9.4,0,17,7.6,17,17v192h24V120.2
	C168,97.5,149.7,79,127.2,79z M211,295.8V85h-24v210.5c0,20.7-16.6,37.5-37.1,37.5H50v24h99.3C183.3,357,211,329.6,211,295.8z M0,38
	v24h441V38H0z M50,0v24h339V0H50z M289.1,357H390v-24H289.5c-20.7,0-37.5-16.7-37.5-37.2V85h-24v210.3
	C228,329.3,255.4,357,289.1,357z"/>
<g>
	<g>
		<path class="st1" d="M519.9,198c-4.6,0-6.9-2.4-6.9-7.3V73.2c0-4.1,3.7-6.2,11.2-6.2h6.5c7.5,0,11.2,2.1,11.2,6.2V174h27.4
			c3.7,0,5.6,3.1,5.6,9.2v5.7c0,6.1-1.9,9.2-5.6,9.2L519.9,198L519.9,198z"/>
		<path class="st1" d="M603.9,198c-4.6,0-6.9-2.4-6.9-7.3V75.4c0-4.9,2.3-7.3,6.9-7.3h54.6c3.7,0,5.6,3.1,5.6,9.2V83
			c0,6.1-1.9,9.2-5.6,9.2h-32.4v27h29.5c3.6,0,5.5,3.1,5.5,9.3v6.4c0,6.2-1.8,9.3-5.5,9.3h-29.5v30h32.4c3.7,0,5.6,3.1,5.6,9.2v5.7
			c0,6.1-1.9,9.2-5.6,9.2h-54.6V198z"/>
		<path class="st1" d="M736.1,200.1c-17.9,0-30.9-5.4-39-16.3c-8.1-10.9-12.1-27.9-12.1-50.9s4.4-38.9,13.2-50
			c8.8-11,22.6-16.5,41.2-16.5s7.8,0.2,11.3,0.7s6.1,0.9,7.8,1.4c2.3,0.6,3.8,1.5,4.6,2.7s1.2,2.8,1.2,4.8s-0.3,4.9-0.9,7.6
			c-0.6,2.7-1.4,5-2.4,6.9s-2.3,2.9-4,2.9s-3.3-0.3-6.2-0.8c-2.9-0.6-6.3-0.8-10.2-0.8c-9,0-15.5,3.3-19.5,9.8s-6.1,17.1-6.1,31.7
			s0.8,19,2.3,25.2s4,10.7,7.6,13.4c3.5,2.7,8.3,4,14.2,4s3.4-0.1,5.7-0.4v-29.2h-9.6c-3.6,0-5.4-3.1-5.4-9.3v-5.4
			c0-6.2,1.8-9.3,5.4-9.3h30.6c4.7,0,7,2.5,7,7.5v55.7c0,3.2-2,5.9-5.9,7.8s-8.5,3.7-13.8,5c-5.3,1.4-11,2.1-17.2,2.1L736.1,200.1z"
			/>
		<path class="st1" d="M797.1,199c-2.9,0-4.9-0.4-6.1-1.3c-1.2-0.9-1.9-1.9-1.9-3.2s0-1,0-1.6s0.3-1.6,0.7-3.3L816.6,75
			c0.6-2.7,1.9-4.6,3.9-5.6s4.6-1.5,7.8-1.5h14c3.5,0,6.2,0.5,8.1,1.5c1.9,1,3.2,2.9,3.8,5.6L881,189.6c0.4,1.6,0.6,2.7,0.7,3.3
			c0,0.6,0,1.1,0,1.6c0,1.2-0.6,2.3-1.9,3.2c-1.2,0.9-3.3,1.3-6.1,1.3h-9.4c-2.6,0-4.9-0.3-6.8-0.9s-3-2-3.4-4l-4.2-22.1h-29.1
			l-4.2,22.1c-0.4,2-1.5,3.3-3.4,4s-4.1,0.9-6.6,0.9L797.1,199L797.1,199L797.1,199z M832.4,109.3l-7.3,39.7h20.3l-7.5-39.7
			c-0.5-2.4-0.9-4.8-1.3-7.1s-0.7-4.8-0.9-7.1h-0.9c-0.2,2.4-0.6,4.8-0.9,7.1s-0.8,4.8-1.3,7.1H832.4z"/>
		<path class="st1" d="M908.9,198c-4.6,0-6.9-2.4-6.9-7.3V73.2c0-4.1,3.7-6.2,11.2-6.2h6.5c7.5,0,11.2,2.1,11.2,6.2V174h27.4
			c3.7,0,5.6,3.1,5.6,9.2v5.7c0,6.1-1.9,9.2-5.6,9.2L908.9,198L908.9,198z"/>
		<path class="st1" d="M1035.2,199c-7.5,0-11.2-2.1-11.2-6.2V75.4c0-5,2.3-7.5,6.9-7.5h32.2c13.7,0,23.8,3.4,30.5,10.2
			c6.6,6.8,10,17.1,10,30.7s-3.3,23.8-10,30.7c-6.6,6.9-16.8,10.3-30.5,10.3H1053v42.8c0,4.1-3.7,6.2-11.2,6.2h-6.5L1035.2,199z
			 M1053,125h10.2c4.7,0,7.9-1.3,9.7-3.9c1.8-2.6,2.7-6.8,2.7-12.6s-0.9-10-2.7-12.6c-1.8-2.6-5-3.9-9.7-3.9H1053V125z"/>
		<path class="st1" d="M1117.6,199c-2.9,0-4.9-0.4-6.1-1.3c-1.2-0.9-1.9-1.9-1.9-3.2s0-1,0-1.6s0.3-1.6,0.7-3.3L1137.1,75
			c0.6-2.7,1.9-4.6,3.9-5.6s4.6-1.5,7.8-1.5h14c3.5,0,6.2,0.5,8.1,1.5s3.2,2.9,3.8,5.6l26.8,114.6c0.4,1.6,0.6,2.7,0.7,3.3
			c0,0.6,0,1.1,0,1.6c0,1.2-0.6,2.3-1.9,3.2c-1.2,0.9-3.3,1.3-6.1,1.3h-9.4c-2.6,0-4.9-0.3-6.8-0.9s-3-2-3.4-4l-4.2-22.1h-29.1
			l-4.2,22.1c-0.4,2-1.5,3.3-3.4,4s-4.1,0.9-6.6,0.9L1117.6,199L1117.6,199z M1152.9,109.3l-7.3,39.7h20.3l-7.5-39.7
			c-0.5-2.4-0.9-4.8-1.3-7.1s-0.7-4.8-0.9-7.1h-0.9c-0.2,2.4-0.6,4.8-0.9,7.1s-0.8,4.8-1.3,7.1H1152.9z"/>
		<path class="st1" d="M1243.2,199c-7.5,0-11.2-2.1-11.2-6.2V92h-20.4c-3.7,0-5.6-3.1-5.6-9.2v-5.7c0-6.1,1.9-9.2,5.6-9.2h70.8
			c3.7,0,5.6,3.1,5.6,9.2v5.7c0,6.1-1.9,9.2-5.6,9.2H1261v100.8c0,4.1-3.7,6.2-11.2,6.2h-6.5H1243.2z"/>
		<path class="st1" d="M1320.2,199c-7.5,0-11.2-2.1-11.2-6.2V73.1c0-4.1,3.7-6.2,11.2-6.2h6.5c7.5,0,11.2,2,11.2,6.2v45.8h32V73.1
			c0-4.1,3.7-6.2,11.2-6.2h6.5c7.5,0,11.2,2,11.2,6.2v119.7c0,4.1-3.7,6.2-11.2,6.2h-6.5c-7.5,0-11.2-2.1-11.2-6.2V144h-32v48.8
			c0,4.1-3.7,6.2-11.2,6.2H1320.2z"/>
		<path class="st1" d="M1451.5,199c-2.5,0-4.7-0.5-6.7-1.4s-3.3-2.8-3.9-5.7l-20.8-114.6c-0.1-0.6-0.3-1.5-0.5-2.5
			c-0.2-1.1-0.3-1.8-0.3-2.3c0-1.4,0.6-2.5,1.9-3.3c1.2-0.8,3.3-1.2,6.1-1.2h10c2.6,0,4.8,0.3,6.8,0.9c1.9,0.6,3,1.9,3.2,3.9
			l12.1,97.2h0.7l15-96.3c0.4-2.5,1.3-4,2.9-4.7s3.9-1,7.1-1l5.8-1c3.2,0,5.6,0.3,7.2,1s2.5,2.3,2.9,4.7l14.7,97.2h0.7l11.5-98.2
			c0.2-2,1.3-3.3,3.3-3.9c1.9-0.6,4.1-0.9,6.6-0.9h10.2c2.9,0,4.9,0.4,6.2,1.2c1.2,0.8,1.9,1.9,1.9,3.3s-0.3,2-0.8,4.9l-21.8,115.5
			c-0.5,2.9-1.8,4.8-3.8,5.7c-2.1,0.9-4.3,1.4-6.7,1.4h-13.8c-2.5,0-4.8-0.5-6.9-1.4s-3.3-2.8-3.9-5.7l-10.7-69.9h-0.8l-11.3,69.9
			c-0.5,2.9-1.8,4.8-3.9,5.7s-4.3,1.4-6.7,1.4h-13.9L1451.5,199z"/>
		<path class="st1" d="M1570.9,199c-2.9,0-4.9-0.4-6.1-1.3c-1.2-0.9-1.9-1.9-1.9-3.2s0-1,0-1.6s0.3-1.6,0.7-3.3L1590.4,75
			c0.6-2.7,1.9-4.6,3.9-5.6s4.6-1.5,7.8-1.5h14c3.5,0,6.2,0.5,8.1,1.5s3.2,2.9,3.8,5.6l26.8,114.6c0.4,1.6,0.6,2.7,0.7,3.3
			c0,0.6,0,1.1,0,1.6c0,1.2-0.6,2.3-1.9,3.2c-1.2,0.9-3.3,1.3-6.1,1.3h-9.4c-2.6,0-4.9-0.3-6.8-0.9s-3-2-3.4-4l-4.2-22.1h-29.1
			l-4.2,22.1c-0.4,2-1.5,3.3-3.4,4s-4.1,0.9-6.6,0.9L1570.9,199L1570.9,199z M1606.2,109.3l-7.3,39.7h20.3l-7.5-39.7
			c-0.5-2.4-0.9-4.8-1.3-7.1s-0.7-4.8-0.9-7.1h-0.9c-0.2,2.4-0.6,4.8-0.9,7.1s-0.8,4.8-1.3,7.1H1606.2z"/>
		<path class="st1" d="M1696.2,199c-7.5,0-11.2-2-11.2-6.1v-46.7l-27.1-69c-0.4-1-0.7-2-1-2.9s-0.5-1.8-0.5-2.5c0-1.5,0.9-2.5,2.7-3
			c1.8-0.5,4.6-0.7,8.3-0.7h8.6c2.5,0,4.7,0.3,6.7,0.9s3.4,2.1,4.1,4.3l13.5,41.7l12.4-41.7c0.6-2.2,2-3.7,4-4.3
			c2.1-0.6,4.3-0.9,6.8-0.9h7.7c3.7,0,6.5,0.3,8.3,0.7c1.8,0.5,2.7,1.5,2.7,3s-0.2,1.6-0.5,2.5s-0.7,1.9-1,2.9l-26.8,69v46.7
			c0,4.1-3.7,6.1-11.2,6.1H1696.2z"/>
	</g>
	<g>
		<path class="st1" d="M700.1,306.2l3.3-7.3c4.1,3.3,10.5,5.6,16.7,5.6s11.2-2.8,11.2-6.6c0-10.9-30.1-3.8-30.1-22.6
			c0-7.7,6.5-15.1,20.4-15.1c8.1,0,12.4,1.6,16.9,4.5l-3,7.3c-4.6-2.7-9.6-4-14-4c-7.8,0-11,3-11,6.9c0,10.8,30,3.8,30,22.4
			c0,7.5-6.6,15-20.5,15C712.4,312.3,704.2,309.8,700.1,306.2L700.1,306.2z"/>
		<path class="st1" d="M1474.2,306.2l3.3-7.3c4.1,3.3,10.5,5.6,16.7,5.6s11.2-2.8,11.2-6.6c0-10.9-30.1-3.8-30.1-22.6
			c0-7.7,6.5-15.1,20.4-15.1c8.1,0,12.4,1.6,16.9,4.5l-3,7.3c-4.6-2.7-9.6-4-14-4c-7.8,0-11,3-11,6.9c0,10.8,30,3.8,30,22.4
			c0,7.5-6.6,15-20.5,15C1486.5,312.3,1478.3,309.8,1474.2,306.2L1474.2,306.2z"/>
		<path class="st1" d="M787.3,286.3c0-15,11.6-26,27.3-26s27.3,11,27.3,26s-11.6,26-27.3,26S787.3,301.2,787.3,286.3z M832.4,286.3
			c0-10.3-7.6-17.8-17.8-17.8s-17.8,7.5-17.8,17.8s7.6,17.8,17.8,17.8S832.4,296.6,832.4,286.3z"/>
		<path class="st1" d="M893,261h9v43h26v8h-35V261z"/>
		<path class="st1" d="M977,261h9v51h-9V261z"/>
		<path class="st1" d="M1037.6,286.3c0-15.1,11.6-26.4,27.1-26c8.4,0.2,15.3,3,20,8.5l-6.1,5.7c-3.7-4-8.3-5.9-13.5-5.9
			c-10.5,0-18.1,7.4-18.1,17.8s7.6,17.8,18.1,17.8c7,0,9.8-2,13.5-6l6.1,5.8c-4.7,5.5-11.8,8.5-20.1,8.5c-15.5,0-27.1-10.9-27.1-26
			L1037.6,286.3z"/>
		<path class="st1" d="M1135,261h9v51h-9V261z"/>
		<path class="st1" d="M1209,269h-17v-8h43v8h-17v43h-9V269z"/>
		<path class="st1" d="M1279.1,286.3c0-15,11.6-26,27.3-26s27.3,11,27.3,26s-11.6,26-27.3,26S1279.1,301.2,1279.1,286.3z
			 M1324.2,286.3c0-10.3-7.6-17.8-17.8-17.8s-17.8,7.5-17.8,17.8s7.6,17.8,17.8,17.8S1324.2,296.6,1324.2,286.3z"/>
		<path class="st1" d="M1418.1,312l-10.5-15.1c-0.7,0-1.3,0-2,0H1394v15h-9v-51h19.9c12.7,0,20.6,6.8,20.6,18.1s-3.7,13.4-10.3,16.1
			l11.1,16.8h-8.3L1418.1,312z M1404.9,269H1394v20h10.9c8.2,0,12.4-3.7,12.4-10S1413.1,269,1404.9,269z"/>
	</g>
</g>
</svg>
